# xmcd CD database file
#
# Track frame offsets:
#	150
#	10415
#	20500
#	36842
#	49240
#	61752
#	73077
#	82400
#	93412
#	104195
#	116205
#	128957
#	137837
#	147872
#	165885
#	177675
#
# Disc length: 2528 seconds
#
# Revision: 2
# Processed by: cddbd v1.5.2PL0 Copyright (c) Steve Scherf et al.
# Submitted via: CDex 1.51
#
DISCID=f109de10
DTITLE=Various Artist - Country-Hits [Volume 3]
DYEAR=1900
DGENRE=Country
TTITLE0=Buddy Knox - Devil Woman
TTITLE1=Waylon Jennings - White Lightning
TTITLE2=Rex Allen jr. - Memory Train 
TTITLE3=Ray Price - Let It Rain ,Let Her Cry
TTITLE4=Frankie Laine - High Non (Do Not Forsake Me)
TTITLE5=Johnny Roman - Treat Me Like A Man
TTITLE6=Don Williams - In My Live
TTITLE7=Waylon Jennings - Sally Was A Good Old Girl
TTITLE8=Ferlin Huskey - Gone
TTITLE9=Conway Twitty - Sittin' In A Dim Cafe
TTITLE10=Lee Hazlewood - These Boots Are Make For Walking
TTITLE11=Sandy Posey - Born A Woman
TTITLE12=Buck Owens - Rhythm And Booze
TTITLE13=Rickie Nelson - Garden Party
TTITLE14=Don David jr. - Country Kings
TTITLE15=Gene Simmons - Catahoula Cur Dogs
EXTD=
EXTT0=
EXTT1=
EXTT2=
EXTT3=
EXTT4=
EXTT5=
EXTT6=
EXTT7=
EXTT8=
EXTT9=
EXTT10=
EXTT11=
EXTT12=
EXTT13=
EXTT14=
EXTT15=
PLAYORDER=
